<svg width="51" height="51" viewBox="0 0 51 51" fill="none" xmlns="http://www.w3.org/2000/svg">
<path d="M10 1H40.6377C45.6081 1.0002 49.6377 5.02956 49.6377 10V40.6377C49.6375 45.608 45.608 49.6375 40.6377 49.6377H10C5.02956 49.6377 1.0002 45.6081 1 40.6377V10C1 5.02944 5.02944 1 10 1Z" fill="url(#paint0_linear_696_1742)"/>
<path d="M10 1H40.6377C45.6081 1.0002 49.6377 5.02956 49.6377 10V40.6377C49.6375 45.608 45.608 49.6375 40.6377 49.6377H10C5.02956 49.6377 1.0002 45.6081 1 40.6377V10C1 5.02944 5.02944 1 10 1Z" stroke="url(#paint1_linear_696_1742)" stroke-width="2"/>
<g clip-path="url(#clip0_696_1742)">
<path d="M33.7183 28.7758C33.1259 28.159 32.4114 27.8292 31.6541 27.8292C30.9029 27.8292 30.1823 28.1529 29.5655 28.7697L27.6357 30.6934C27.4769 30.6079 27.3181 30.5285 27.1654 30.4491C26.9456 30.3392 26.7379 30.2354 26.5608 30.1254C24.7531 28.9773 23.1103 27.4811 21.5347 25.5452C20.7713 24.5802 20.2583 23.768 19.8858 22.9435C20.3866 22.4855 20.8507 22.0092 21.3027 21.5511C21.4736 21.3801 21.6446 21.203 21.8156 21.032C23.0981 19.7496 23.0981 18.0884 21.8156 16.806L20.1484 15.1387C19.9591 14.9494 19.7637 14.754 19.5805 14.5586C19.214 14.1799 18.8293 13.7891 18.4323 13.4226C17.8399 12.8364 17.1315 12.5249 16.3865 12.5249C15.6414 12.5249 14.9208 12.8364 14.3101 13.4226C14.304 13.4287 14.304 13.4287 14.2979 13.4349L12.2215 15.5296C11.4398 16.3113 10.9939 17.264 10.8962 18.3694C10.7497 20.1526 11.2749 21.8137 11.6779 22.9008C12.6673 25.5696 14.1452 28.0429 16.3498 30.6934C19.0247 33.8874 22.2431 36.4096 25.9196 38.1868C27.3242 38.8524 29.1991 39.6402 31.2938 39.7746C31.422 39.7807 31.5564 39.7868 31.6785 39.7868C33.0893 39.7868 34.274 39.2799 35.2023 38.2723C35.2084 38.26 35.2206 38.2539 35.2267 38.2417C35.5443 37.857 35.9107 37.5089 36.2955 37.1363C36.5581 36.886 36.8268 36.6234 37.0894 36.3485C37.694 35.7195 38.0116 34.9867 38.0116 34.2355C38.0116 33.4782 37.6879 32.7515 37.0711 32.1408L33.7183 28.7758ZM35.9046 35.2065C35.8985 35.2065 35.8985 35.2126 35.9046 35.2065C35.6665 35.463 35.4222 35.6951 35.1596 35.9516C34.7626 36.3302 34.3595 36.7272 33.9809 37.173C33.3641 37.8326 32.6374 38.144 31.6846 38.144C31.593 38.144 31.4953 38.144 31.4037 38.1379C29.5899 38.0219 27.9044 37.3135 26.6402 36.7089C23.1836 35.0355 20.1484 32.6599 17.6262 29.6491C15.5437 27.1391 14.1513 24.8184 13.2291 22.3267C12.6612 20.8061 12.4535 19.6213 12.5451 18.5037C12.6062 17.7892 12.881 17.1968 13.3879 16.6899L15.4704 14.6074C15.7697 14.3265 16.0872 14.1738 16.3987 14.1738C16.7834 14.1738 17.0949 14.4059 17.2903 14.6013C17.2964 14.6074 17.3025 14.6135 17.3086 14.6196C17.6812 14.9677 18.0354 15.328 18.4079 15.7128C18.5972 15.9082 18.7926 16.1036 18.9881 16.3052L20.6553 17.9724C21.3027 18.6197 21.3027 19.2182 20.6553 19.8656C20.4782 20.0427 20.3072 20.2198 20.1301 20.3908C19.6171 20.916 19.1285 21.4046 18.5972 21.8809C18.585 21.8931 18.5728 21.8992 18.5667 21.9115C18.0415 22.4367 18.1392 22.9497 18.2491 23.2978C18.2552 23.3161 18.2613 23.3344 18.2674 23.3527C18.701 24.4031 19.3117 25.3925 20.24 26.5711L20.2461 26.5772C21.9317 28.6536 23.7088 30.272 25.6692 31.5117C25.9196 31.6705 26.1761 31.7988 26.4204 31.9209C26.6402 32.0308 26.8479 32.1347 27.025 32.2446C27.0494 32.2568 27.0738 32.2751 27.0982 32.2873C27.3059 32.3912 27.5013 32.44 27.7028 32.44C28.2097 32.44 28.5273 32.1225 28.6311 32.0186L30.7197 29.93C30.9274 29.7224 31.2572 29.472 31.6419 29.472C32.0205 29.472 32.332 29.7102 32.5213 29.9178C32.5274 29.9239 32.5274 29.9239 32.5335 29.93L35.8985 33.295C36.5275 33.9179 36.5275 34.5592 35.9046 35.2065Z" fill="url(#paint2_linear_696_1742)"/>
<path d="M26.4872 17.7341C28.0873 18.0029 29.5408 18.7601 30.7011 19.9205C31.8614 21.0808 32.6126 22.5343 32.8874 24.1343C32.9546 24.5374 33.3027 24.8183 33.6997 24.8183C33.7485 24.8183 33.7913 24.8122 33.8401 24.8061C34.292 24.7328 34.5913 24.3053 34.518 23.8534C34.1882 21.9175 33.2722 20.1525 31.8737 18.754C30.4751 17.3555 28.7102 16.4395 26.7743 16.1097C26.3223 16.0364 25.9009 16.3356 25.8216 16.7814C25.7422 17.2273 26.0353 17.6609 26.4872 17.7341Z" fill="url(#paint3_linear_696_1742)"/>
<path d="M39.7482 23.6152C39.2047 20.4273 37.7024 17.5264 35.3939 15.218C33.0854 12.9095 30.1846 11.4072 26.9967 10.8636C26.5509 10.7843 26.1295 11.0896 26.0501 11.5354C25.9768 11.9873 26.2761 12.4087 26.728 12.4881C29.5739 12.9706 32.1694 14.3202 34.2336 16.3783C36.2977 18.4425 37.6413 21.038 38.1237 23.8839C38.1909 24.287 38.539 24.5679 38.936 24.5679C38.9848 24.5679 39.0276 24.5618 39.0765 24.5557C39.5223 24.4885 39.8276 24.061 39.7482 23.6152Z" fill="url(#paint4_linear_696_1742)"/>
</g>
<defs>
<linearGradient id="paint0_linear_696_1742" x1="-1.88221" y1="46.9728" x2="53.5917" y2="13.7049" gradientUnits="userSpaceOnUse">
<stop stop-color="#DDBFFF"/>
<stop offset="1" stop-color="#EDDDFF"/>
</linearGradient>
<linearGradient id="paint1_linear_696_1742" x1="47.9658" y1="50.6373" x2="2.02101" y2="4.25277" gradientUnits="userSpaceOnUse">
<stop stop-color="#755797"/>
<stop offset="1" stop-color="#070F3D"/>
</linearGradient>
<linearGradient id="paint2_linear_696_1742" x1="24.4413" y1="39.7868" x2="24.4413" y2="12.5249" gradientUnits="userSpaceOnUse">
<stop stop-color="#000E38"/>
<stop offset="1" stop-color="#3F186A"/>
</linearGradient>
<linearGradient id="paint3_linear_696_1742" x1="30.1688" y1="24.8183" x2="30.1688" y2="16.0986" gradientUnits="userSpaceOnUse">
<stop stop-color="#000E38"/>
<stop offset="1" stop-color="#3F186A"/>
</linearGradient>
<linearGradient id="paint4_linear_696_1742" x1="32.8999" y1="24.5679" x2="32.8999" y2="10.8511" gradientUnits="userSpaceOnUse">
<stop stop-color="#000E38"/>
<stop offset="1" stop-color="#3F186A"/>
</linearGradient>
<clipPath id="clip0_696_1742">
<rect width="28.9356" height="28.9356" fill="white" transform="translate(10.8516 10.8511)"/>
</clipPath>
</defs>
</svg>
