<svg width="61" height="55" viewBox="0 0 61 55" fill="none" xmlns="http://www.w3.org/2000/svg">
<path d="M11.2055 35.5995C9.58325 35.5995 7.99743 35.1184 6.64861 34.2171C5.2998 33.3157 4.24858 32.0346 3.62791 30.5358C3.00725 29.0369 2.84502 27.3877 3.16174 25.7967C3.47846 24.2056 4.2599 22.7442 5.40724 21.5974C6.55457 20.4505 8.01625 19.6696 9.60742 19.3535C11.1986 19.0374 12.8478 19.2003 14.3463 19.8215C15.8449 20.4428 17.1256 21.4945 18.0264 22.8437C18.9273 24.1928 19.4077 25.7788 19.4071 27.4011C19.4046 29.5752 18.5396 31.6595 17.0019 33.1966C15.4643 34.7336 13.3796 35.5978 11.2055 35.5995ZM11.2055 22.3995C10.2163 22.3995 9.24928 22.6928 8.42677 23.2424C7.60426 23.792 6.96319 24.5731 6.58463 25.4871C6.20607 26.401 6.10703 27.4066 6.30001 28.3769C6.493 29.3471 6.96936 30.2383 7.66884 30.9378C8.36833 31.6372 9.25953 32.1136 10.2297 32.3066C11.2 32.4996 12.2056 32.4005 13.1195 32.022C14.0335 31.6434 14.8146 31.0023 15.3642 30.1798C15.9138 29.3573 16.2071 28.3903 16.2071 27.4011C16.2063 26.0748 15.679 24.8032 14.7412 23.8654C13.8034 22.9276 12.5318 22.4003 11.2055 22.3995Z" fill="url(#paint0_linear_696_1604)"/>
<path d="M20.8 54.4009C20.3757 54.4009 19.9687 54.2323 19.6686 53.9323C19.3686 53.6322 19.2 53.2252 19.2 52.8009V49.6009C19.2 47.4791 18.3571 45.4443 16.8569 43.944C15.3566 42.4437 13.3217 41.6009 11.2 41.6009C9.07827 41.6009 7.04344 42.4437 5.54315 43.944C4.04285 45.4443 3.2 47.4791 3.2 49.6009V52.8009C3.2 53.2252 3.03143 53.6322 2.73137 53.9323C2.43131 54.2323 2.02435 54.4009 1.6 54.4009C1.17565 54.4009 0.768688 54.2323 0.468629 53.9323C0.168571 53.6322 0 53.2252 0 52.8009V49.6009C6.2597e-08 46.6305 1.18 43.7817 3.2804 41.6813C5.38081 39.5809 8.22958 38.4009 11.2 38.4009C14.1704 38.4009 17.0192 39.5809 19.1196 41.6813C21.22 43.7817 22.4 46.6305 22.4 49.6009V52.8009C22.4 53.2252 22.2314 53.6322 21.9314 53.9323C21.6313 54.2323 21.2243 54.4009 20.8 54.4009Z" fill="url(#paint1_linear_696_1604)"/>
<path d="M20.8059 52.3531C20.5016 52.3529 20.2036 52.2659 19.947 52.1023C19.6904 51.9387 19.4857 51.7053 19.357 51.4295C19.2284 51.1537 19.1811 50.847 19.2206 50.5452C19.2601 50.2435 19.3849 49.9592 19.5803 49.7259L41.9803 22.9739C42.2574 22.6646 42.6438 22.4751 43.058 22.4455C43.4722 22.4159 43.8816 22.5484 44.1999 22.8151C44.5181 23.0819 44.7202 23.4619 44.7634 23.8749C44.8067 24.2879 44.6876 24.7015 44.4315 25.0283L22.0315 51.7803C21.8815 51.9595 21.694 52.1037 21.4822 52.2026C21.2705 52.3016 21.0396 52.353 20.8059 52.3531Z" fill="url(#paint2_linear_696_1604)"/>
<path d="M7.99844 16C7.57409 16 7.16713 15.8314 6.86707 15.5314C6.56701 15.2313 6.39844 14.8243 6.39844 14.4V1.6C6.39844 1.17565 6.56701 0.768688 6.86707 0.468629C7.16713 0.168571 7.57409 0 7.99844 0C8.42278 0 8.82975 0.168571 9.12981 0.468629C9.42987 0.768688 9.59844 1.17565 9.59844 1.6V14.4C9.59844 14.8243 9.42987 15.2313 9.12981 15.5314C8.82975 15.8314 8.42278 16 7.99844 16Z" fill="url(#paint3_linear_696_1604)"/>
<path d="M59.2031 3.2H4.80312C4.37878 3.2 3.97181 3.03143 3.67175 2.73137C3.3717 2.43131 3.20312 2.02435 3.20312 1.6C3.20312 1.17565 3.3717 0.768688 3.67175 0.468629C3.97181 0.168571 4.37878 0 4.80312 0H59.2031C59.6275 0 60.0344 0.168571 60.3345 0.468629C60.6345 0.768688 60.8031 1.17565 60.8031 1.6C60.8031 2.02435 60.6345 2.43131 60.3345 2.73137C60.0344 3.03143 59.6275 3.2 59.2031 3.2Z" fill="url(#paint4_linear_696_1604)"/>
<path d="M56.0023 38.4C55.578 38.4 55.171 38.2314 54.871 37.9314C54.5709 37.6313 54.4023 37.2244 54.4023 36.8V1.6C54.4023 1.17565 54.5709 0.768688 54.871 0.46863C55.171 0.168571 55.578 0 56.0023 0C56.4267 0 56.8337 0.168571 57.1337 0.46863C57.4338 0.768688 57.6023 1.17565 57.6023 1.6V36.8C57.6023 37.2244 57.4338 37.6313 57.1337 37.9314C56.8337 38.2314 56.4267 38.4 56.0023 38.4Z" fill="url(#paint5_linear_696_1604)"/>
<path d="M59.2063 38.4012H40.0063C39.5819 38.4012 39.1749 38.2326 38.8749 37.9325C38.5748 37.6325 38.4062 37.2255 38.4062 36.8012C38.4062 36.3768 38.5748 35.9699 38.8749 35.6698C39.1749 35.3697 39.5819 35.2012 40.0063 35.2012H59.2063C59.6306 35.2012 60.0376 35.3697 60.3376 35.6698C60.6377 35.9699 60.8062 36.3768 60.8062 36.8012C60.8062 37.2255 60.6377 37.6325 60.3376 37.9325C60.0376 38.2326 59.6306 38.4012 59.2063 38.4012Z" fill="url(#paint6_linear_696_1604)"/>
<path d="M46.4094 12.8006H27.2094C26.785 12.8006 26.3781 12.632 26.078 12.332C25.7779 12.0319 25.6094 11.6249 25.6094 11.2006C25.6094 10.7762 25.7779 10.3693 26.078 10.0692C26.3781 9.76916 26.785 9.60059 27.2094 9.60059H46.4094C46.8337 9.60059 47.2407 9.76916 47.5407 10.0692C47.8408 10.3693 48.0094 10.7762 48.0094 11.2006C48.0094 11.6249 47.8408 12.0319 47.5407 12.332C47.2407 12.632 46.8337 12.8006 46.4094 12.8006Z" fill="url(#paint7_linear_696_1604)"/>
<path d="M46.3953 19.2005H20.7953C20.371 19.2005 19.964 19.0319 19.6639 18.7319C19.3639 18.4318 19.1953 18.0248 19.1953 17.6005C19.1953 17.1761 19.3639 16.7692 19.6639 16.4691C19.964 16.1691 20.371 16.0005 20.7953 16.0005H46.3953C46.8197 16.0005 47.2266 16.1691 47.5267 16.4691C47.8267 16.7692 47.9953 17.1761 47.9953 17.6005C47.9953 18.0248 47.8267 18.4318 47.5267 18.7319C47.2266 19.0319 46.8197 19.2005 46.3953 19.2005Z" fill="url(#paint8_linear_696_1604)"/>
<defs>
<linearGradient id="paint0_linear_696_1604" x1="19.4071" y1="27.3979" x2="3.00391" y2="27.3979" gradientUnits="userSpaceOnUse">
<stop stop-color="#755797"/>
<stop offset="1" stop-color="#9B4DF0"/>
</linearGradient>
<linearGradient id="paint1_linear_696_1604" x1="22.4" y1="46.4009" x2="0" y2="46.4009" gradientUnits="userSpaceOnUse">
<stop stop-color="#755797"/>
<stop offset="1" stop-color="#9B4DF0"/>
</linearGradient>
<linearGradient id="paint2_linear_696_1604" x1="44.7721" y1="37.3973" x2="19.207" y2="37.3973" gradientUnits="userSpaceOnUse">
<stop stop-color="#755797"/>
<stop offset="1" stop-color="#9B4DF0"/>
</linearGradient>
<linearGradient id="paint3_linear_696_1604" x1="9.59844" y1="8" x2="6.39844" y2="8" gradientUnits="userSpaceOnUse">
<stop stop-color="#755797"/>
<stop offset="1" stop-color="#9B4DF0"/>
</linearGradient>
<linearGradient id="paint4_linear_696_1604" x1="60.8031" y1="1.6" x2="3.20313" y2="1.6" gradientUnits="userSpaceOnUse">
<stop stop-color="#755797"/>
<stop offset="1" stop-color="#9B4DF0"/>
</linearGradient>
<linearGradient id="paint5_linear_696_1604" x1="57.6023" y1="19.2" x2="54.4023" y2="19.2" gradientUnits="userSpaceOnUse">
<stop stop-color="#755797"/>
<stop offset="1" stop-color="#9B4DF0"/>
</linearGradient>
<linearGradient id="paint6_linear_696_1604" x1="60.8062" y1="36.8012" x2="38.4062" y2="36.8012" gradientUnits="userSpaceOnUse">
<stop stop-color="#755797"/>
<stop offset="1" stop-color="#9B4DF0"/>
</linearGradient>
<linearGradient id="paint7_linear_696_1604" x1="48.0094" y1="11.2006" x2="25.6094" y2="11.2006" gradientUnits="userSpaceOnUse">
<stop stop-color="#755797"/>
<stop offset="1" stop-color="#9B4DF0"/>
</linearGradient>
<linearGradient id="paint8_linear_696_1604" x1="47.9953" y1="17.6005" x2="19.1953" y2="17.6005" gradientUnits="userSpaceOnUse">
<stop stop-color="#755797"/>
<stop offset="1" stop-color="#9B4DF0"/>
</linearGradient>
</defs>
</svg>
