<svg width="52" height="52" viewBox="0 0 52 52" fill="none" xmlns="http://www.w3.org/2000/svg">
<rect x="1" y="1" width="50" height="50" rx="9" fill="url(#paint0_linear_696_1761)"/>
<rect x="1" y="1" width="50" height="50" rx="9" stroke="url(#paint1_linear_696_1761)" stroke-width="2"/>
<g clip-path="url(#clip0_696_1761)">
<path d="M28.0033 40.7992H23.2449C22.4501 40.7992 21.8035 40.1527 21.8035 39.3579V28.6249H19.0273C18.2325 28.6249 17.5859 27.9781 17.5859 27.1835V22.5844C17.5859 21.7896 18.2325 21.143 19.0273 21.143H21.8035V18.84C21.8035 16.5564 22.5206 14.6136 23.8769 13.2219C25.2394 11.8238 27.1435 11.085 29.3833 11.085L33.0123 11.0909C33.8058 11.0922 34.4512 11.7388 34.4512 12.5322V16.8024C34.4512 17.5972 33.8049 18.2438 33.0103 18.2438L30.5669 18.2447C29.8217 18.2447 29.632 18.3941 29.5914 18.4399C29.5245 18.5158 29.4449 18.7305 29.4449 19.3233V21.1428H32.8267C33.0812 21.1428 33.3279 21.2056 33.5399 21.324C33.9971 21.5795 34.2814 22.0626 34.2814 22.5846L34.2796 27.1838C34.2796 27.9781 33.633 28.6247 32.8382 28.6247H29.4449V39.3579C29.4449 40.1527 28.7982 40.7992 28.0033 40.7992ZM23.5455 39.0573H27.7027V27.845C27.7027 27.3143 28.1346 26.8827 28.6651 26.8827H32.5376L32.5392 22.885H28.6649C28.1344 22.885 27.7027 22.4534 27.7027 21.9227V19.3233C27.7027 18.6428 27.7719 17.8688 28.2856 17.2871C28.9063 16.5838 29.8845 16.5027 30.5664 16.5027L32.7092 16.5018V12.8324L29.3819 12.8269C25.7823 12.8269 23.5455 15.1311 23.5455 18.84V21.9227C23.5455 22.4532 23.1138 22.885 22.5834 22.885H19.3279V26.8827H22.5834C23.1138 26.8827 23.5455 27.3143 23.5455 27.845V39.0573Z" fill="url(#paint2_linear_696_1761)"/>
</g>
<defs>
<linearGradient id="paint0_linear_696_1761" x1="-1.93286" y1="48.2368" x2="55.0339" y2="14.0737" gradientUnits="userSpaceOnUse">
<stop stop-color="#DDBFFF"/>
<stop offset="1" stop-color="#EDDDFF"/>
</linearGradient>
<linearGradient id="paint1_linear_696_1761" x1="49.2566" y1="52" x2="2.0754" y2="4.36722" gradientUnits="userSpaceOnUse">
<stop stop-color="#755797"/>
<stop offset="1" stop-color="#070F3D"/>
</linearGradient>
<linearGradient id="paint2_linear_696_1761" x1="26.0186" y1="40.7992" x2="26.0186" y2="11.085" gradientUnits="userSpaceOnUse">
<stop stop-color="#000E38"/>
<stop offset="1" stop-color="#3F186A"/>
</linearGradient>
<clipPath id="clip0_696_1761">
<rect width="29.6563" height="29.7143" fill="white" transform="translate(11.1719 11.1431)"/>
</clipPath>
</defs>
</svg>
