<svg width="52" height="52" viewBox="0 0 52 52" fill="none" xmlns="http://www.w3.org/2000/svg">
<path d="M10 1H42C46.9706 1 51 5.02944 51 10V42C51 46.9706 46.9706 51 42 51H10C5.02944 51 1 46.9706 1 42V10C1 5.02944 5.02944 1 10 1Z" fill="url(#paint0_linear_696_1723)"/>
<path d="M10 1H42C46.9706 1 51 5.02944 51 10V42C51 46.9706 46.9706 51 42 51H10C5.02944 51 1 46.9706 1 42V10C1 5.02944 5.02944 1 10 1Z" stroke="url(#paint1_linear_696_1723)" stroke-width="2"/>
<g clip-path="url(#clip0_696_1723)">
<path d="M26.0022 40.8573C25.8561 40.8573 25.71 40.8054 25.5924 40.7026C25.1541 40.3151 14.8594 31.1309 14.8594 22.2859C14.8594 16.1413 19.8588 11.1431 26.0022 11.1431C32.1457 11.1431 37.1451 16.1413 37.1451 22.2859C37.1451 31.1309 26.8503 40.3151 26.412 40.7026C26.2944 40.8054 26.1483 40.8573 26.0022 40.8573ZM26.0022 12.3812C20.541 12.3812 16.0975 16.8247 16.0975 22.2859C16.0975 29.613 24.0844 37.5863 26.0022 39.3952C27.92 37.5863 35.907 29.613 35.907 22.2859C35.907 16.8247 31.4635 12.3812 26.0022 12.3812Z" fill="url(#paint2_linear_696_1723)"/>
<path d="M26.003 28.4762C22.5895 28.4762 19.8125 25.6991 19.8125 22.2857C19.8125 18.8723 22.5895 16.0952 26.003 16.0952C29.4164 16.0952 32.1935 18.8723 32.1935 22.2857C32.1935 25.6991 29.4164 28.4762 26.003 28.4762ZM26.003 17.3333C23.2717 17.3333 21.0506 19.5545 21.0506 22.2857C21.0506 25.0169 23.2717 27.2381 26.003 27.2381C28.7342 27.2381 30.9554 25.0169 30.9554 22.2857C30.9554 19.5545 28.7342 17.3333 26.003 17.3333Z" fill="url(#paint3_linear_696_1723)"/>
</g>
<defs>
<linearGradient id="paint0_linear_696_1723" x1="-1.93286" y1="48.2368" x2="55.0339" y2="14.0737" gradientUnits="userSpaceOnUse">
<stop stop-color="#DDBFFF"/>
<stop offset="1" stop-color="#EDDDFF"/>
</linearGradient>
<linearGradient id="paint1_linear_696_1723" x1="49.2566" y1="52" x2="2.0754" y2="4.36722" gradientUnits="userSpaceOnUse">
<stop stop-color="#755797"/>
<stop offset="1" stop-color="#070F3D"/>
</linearGradient>
<linearGradient id="paint2_linear_696_1723" x1="26.0022" y1="40.8574" x2="26.0022" y2="11.1431" gradientUnits="userSpaceOnUse">
<stop stop-color="#000E38"/>
<stop offset="1" stop-color="#3F186A"/>
</linearGradient>
<linearGradient id="paint3_linear_696_1723" x1="26.003" y1="28.4762" x2="26.003" y2="16.0952" gradientUnits="userSpaceOnUse">
<stop stop-color="#000E38"/>
<stop offset="1" stop-color="#3F186A"/>
</linearGradient>
<clipPath id="clip0_696_1723">
<rect width="29.7143" height="29.7143" fill="white" transform="translate(11.1445 11.1431)"/>
</clipPath>
</defs>
</svg>
